<svg xmlns="http://www.w3.org/2000/svg" xmlns:xlink="http://www.w3.org/1999/xlink" version="1.1" x="0px" y="0px" viewBox="0 0 100 125" enable-background="new 0 0 100 100" xml:space="preserve"><g><path d="M43.169,37.506h8.435v-3.651v-4.941C48.551,30.475,45.529,33.369,43.169,37.506z"/><path d="M54.304,75.206v8.59c3.514-1.763,6.422-4.728,8.594-8.59H54.304z"/><path d="M59.23,83.791c5.729-1.31,10.798-4.365,14.61-8.585h-7.899C64.202,78.691,61.94,81.602,59.23,83.791z"/><path d="M54.304,28.913v4.941v3.651h8.434C60.378,33.369,57.356,30.475,54.304,28.913z"/><path d="M39.966,75.206h-7.898c3.811,4.22,8.881,7.275,14.609,8.585C43.966,81.602,41.705,78.691,39.966,75.206z"/><path d="M46.84,28.883c-5.796,1.288-10.925,4.363-14.772,8.623h8.055C41.988,33.858,44.333,30.975,46.84,28.883z"/><path d="M35.972,57.706H24.838c0.261,5.49,2.104,10.569,5.08,14.8h8.848C37.078,68.199,36.11,63.193,35.972,57.706z"/><path d="M51.604,83.796v-8.59H43.01C45.181,79.068,48.089,82.033,51.604,83.796z"/><path d="M54.304,40.206v14.8h12.926c-0.162-5.806-1.344-10.762-3.138-14.8H54.304z"/><rect x="43.636" y="16.205" width="18.635" height="1.466"/><path d="M54.304,72.506h9.941c1.809-4.199,2.844-9.229,2.99-14.8H54.304V72.506z"/><path d="M38.677,55.006h12.927v-14.8h-9.788C40.021,44.244,38.839,49.2,38.677,55.006z"/><path d="M41.662,72.506h9.941v-14.8H38.671C38.817,63.277,39.854,68.307,41.662,72.506z"/><path d="M38.901,40.206h-8.983c-2.976,4.23-4.819,9.31-5.08,14.8h11.141C36.131,49.317,37.212,44.36,38.901,40.206z"/><path d="M67.142,72.506h8.848c2.975-4.23,4.819-9.31,5.08-14.8H69.935C69.797,63.193,68.829,68.199,67.142,72.506z"/><path d="M67.005,40.206c1.689,4.154,2.771,9.111,2.924,14.8h11.141c-0.261-5.49-2.105-10.569-5.08-14.8H67.005z"/><path d="M65.784,37.506h8.057c-3.848-4.26-8.979-7.335-14.774-8.624C61.574,30.975,63.919,33.858,65.784,37.506z"/><rect x="85.168" y="78.676" width="2.661" height="2.66"/><rect x="86.498" y="63.051" width="2.661" height="2.66"/><rect x="18.063" y="36.561" width="2.661" height="2.66"/><path d="M87.907,28.895c0.64-0.041,1.142-0.559,1.167-1.199c0.025-0.64-0.44-1.196-1.075-1.287   c-0.158-0.022-3.887-0.598-4.303-4.277c-0.072-0.638-0.586-1.094-1.258-1.109c-0.643,0.008-1.174,0.501-1.23,1.14   c-0.014,0.163-0.396,3.986-4.212,4.238c-0.646,0.043-1.147,0.571-1.164,1.218c-0.016,0.646,0.468,1.198,1.11,1.272   c0.162,0.019,3.973,0.499,4.266,4.229c0.049,0.633,0.564,1.128,1.199,1.151c0.016,0.001,0.031,0.001,0.047,0.001   c0.614,0,1.141-0.448,1.234-1.06C83.695,33.171,84.359,29.118,87.907,28.895z M82.532,29.504c-0.518-0.751-1.16-1.342-1.84-1.799   c0.762-0.533,1.352-1.196,1.801-1.896c0.533,0.737,1.181,1.322,1.855,1.775C83.596,28.123,82.997,28.797,82.532,29.504z"/><path d="M23.003,74.361c-0.158-0.021-3.875-0.557-4.297-4.275c-0.072-0.638-0.569-1.103-1.258-1.109   c-0.641,0.008-1.173,0.5-1.229,1.139c-0.015,0.163-0.396,3.986-4.212,4.238c-0.646,0.043-1.148,0.571-1.164,1.218   s0.468,1.198,1.11,1.272c0.405,0.047,3.977,0.561,4.265,4.23c0.05,0.633,0.565,1.127,1.199,1.15   c0.016,0.001,0.031,0.002,0.047,0.002c0.615,0,1.142-0.449,1.235-1.061c0.007-0.041,0.671-4.094,4.218-4.317   c0.643-0.04,1.148-0.562,1.171-1.204S23.642,74.447,23.003,74.361z M17.542,77.458c-0.518-0.751-1.16-1.343-1.839-1.799   c0.761-0.533,1.352-1.197,1.8-1.896c0.533,0.737,1.182,1.321,1.855,1.776C18.606,76.077,18.008,76.75,17.542,77.458z"/><path d="M54.304,20.371h-2.7v5.169c0.448-0.02,0.897-0.034,1.351-0.034c0.452,0,0.901,0.015,1.35,0.034V20.371z"/></g><text x="0" y="115" fill="#000000" font-size="5px" font-weight="bold" font-family="'Helvetica Neue', Helvetica, Arial-Unicode, Arial, Sans-serif">Created by suhyeon Jung</text><text x="0" y="120" fill="#000000" font-size="5px" font-weight="bold" font-family="'Helvetica Neue', Helvetica, Arial-Unicode, Arial, Sans-serif">from the Noun Project</text></svg>