<svg xmlns="http://www.w3.org/2000/svg" xmlns:xlink="http://www.w3.org/1999/xlink" version="1.1" x="0px" y="0px" viewBox="0 0 100 125" enable-background="new 0 0 100 100" xml:space="preserve"><g><g><circle fill-rule="evenodd" clip-rule="evenodd" fill="#000000" cx="44.226" cy="26.314" r="10.852"/><path fill-rule="evenodd" clip-rule="evenodd" fill="#000000" d="M64.757,47.199v9.136c-0.009,0.008-0.019,0.016-0.026,0.025    c-0.133,0.132-0.26,0.271-0.373,0.401c-0.086,0.101-0.175,0.208-0.261,0.32l-0.119,0.103l-0.059,0.134    c-0.583,0.818-1.002,1.759-1.222,2.743l-5.717,6.628H23.694V47.199c0-3.239,2.627-5.866,5.866-5.866h29.331    C62.131,41.333,64.757,43.96,64.757,47.199z"/></g><path fill="#000000" d="M63.869,62.155l-0.652-0.649L48.991,77.998c-1.041,1.042-1.263,2.589-0.669,3.847   c-0.309,0.29-0.702,0.561-1.148,0.64c-0.582,0.107-1.22-0.134-1.899-0.713c-1.613-1.378-3.346-1.909-4.875-1.491   c-1.245,0.339-2.226,1.306-2.69,2.652l1.914,0.66c0.174-0.503,0.543-1.151,1.309-1.359c0.852-0.231,1.955,0.16,3.029,1.078   c1.162,0.993,2.364,1.385,3.572,1.167c0.902-0.164,1.628-0.644,2.166-1.143c1.296,0.746,2.981,0.568,4.09-0.542L70.1,68.386   l-0.469-0.467L63.869,62.155z"/><path fill="#000000" d="M74.482,57.304c-2.432-2.434-6.375-2.434-8.806,0c-0.109,0.108-0.214,0.219-0.312,0.334   c-0.101,0.115-0.195,0.232-0.284,0.354c-0.002,0.001-0.002,0.002-0.002,0.002c-0.6,0.802-0.977,1.715-1.138,2.659l7.191,7.193   c0.943-0.162,1.859-0.541,2.66-1.138c0,0,0.002,0,0.002-0.003c0.121-0.088,0.238-0.183,0.354-0.284   c0.114-0.1,0.226-0.202,0.333-0.312C76.914,63.679,76.914,59.736,74.482,57.304z"/></g><text x="0" y="115" fill="#000000" font-size="5px" font-weight="bold" font-family="'Helvetica Neue', Helvetica, Arial-Unicode, Arial, Sans-serif">Created by YuguDesign</text><text x="0" y="120" fill="#000000" font-size="5px" font-weight="bold" font-family="'Helvetica Neue', Helvetica, Arial-Unicode, Arial, Sans-serif">from the Noun Project</text></svg>