<svg xmlns="http://www.w3.org/2000/svg" xmlns:xlink="http://www.w3.org/1999/xlink" version="1.1" x="0px" y="0px" viewBox="0 0 28 25" style="enable-background:new 0 0 28 20;" xml:space="preserve"><g><path d="M21,1.23v6.549c0.609,0.549,1,1.336,1,2.221s-0.391,1.672-1,2.221v6.549c4.007-0.91,7-4.487,7-8.77S25.007,2.141,21,1.23z"/><path d="M20,0H0v20h20V0z M6,2h1v1H6V2z M3,3H2V2h1V3z M4,2h1v1H4V2z M6.725,15.713c-1.029,0.508-2.188,0.324-2.588-0.411   c-0.4-0.735,0.109-1.744,1.139-2.253c0.59-0.291,1.217-0.348,1.725-0.212V7.762v-1v-1l8-1v1v1v6c0,1.014-0.375,1.506-1.275,1.951   c-1.029,0.508-2.188,0.324-2.588-0.411c-0.4-0.735,0.109-1.744,1.139-2.253c0.59-0.291,1.217-0.348,1.725-0.212v-4.95l-6,0.75   v6.125C8,14.775,7.625,15.268,6.725,15.713z"/></g><text x="0" y="35" fill="#000000" font-size="5px" font-weight="bold" font-family="'Helvetica Neue', Helvetica, Arial-Unicode, Arial, Sans-serif">Created by Hea Poh Lin</text><text x="0" y="40" fill="#000000" font-size="5px" font-weight="bold" font-family="'Helvetica Neue', Helvetica, Arial-Unicode, Arial, Sans-serif">from the Noun Project</text></svg>