<svg xmlns="http://www.w3.org/2000/svg" xmlns:xlink="http://www.w3.org/1999/xlink" version="1.1" x="0px" y="0px" viewBox="0 0 64 80" enable-background="new 0 0 64 64" xml:space="preserve"><g><g><path d="M20,41H8c-0.552,0-1,0.447-1,1v14c0,0.553,0.448,1,1,1h12c0.552,0,1-0.447,1-1V42C21,41.447,20.552,41,20,41z"/><path d="M38,31H26c-0.552,0-1,0.448-1,1v24c0,0.553,0.448,1,1,1h12c0.553,0,1-0.447,1-1V32C39,31.448,38.553,31,38,31z"/><path d="M56,47H44c-0.553,0-1,0.447-1,1v8c0,0.553,0.447,1,1,1h12c0.553,0,1-0.447,1-1v-8C57,47.447,56.553,47,56,47z"/><path d="M45,12c0-2.757-2.243-5-5-5H24c-2.757,0-5,2.243-5,5s2.243,5,5,5h1.685c0.989,2.072,2.962,3.581,5.315,3.92V25h-3    c-0.552,0-1,0.448-1,1s0.448,1,1,1h8c0.553,0,1-0.448,1-1s-0.447-1-1-1h-3v-4.08c2.353-0.339,4.326-1.848,5.314-3.92H40    C42.757,17,45,14.757,45,12z M24,15c-1.654,0-3-1.346-3-3s1.346-3,3-3h1v5c0,0.34,0.033,0.672,0.08,1H24z M40,15h-1.08    c0.048-0.328,0.08-0.66,0.08-1V9h1c1.654,0,3,1.346,3,3S41.654,15,40,15z"/></g></g><text x="0" y="79" fill="#000000" font-size="5px" font-weight="bold" font-family="'Helvetica Neue', Helvetica, Arial-Unicode, Arial, Sans-serif">Created by Ralf Schmitzer</text><text x="0" y="84" fill="#000000" font-size="5px" font-weight="bold" font-family="'Helvetica Neue', Helvetica, Arial-Unicode, Arial, Sans-serif">from the Noun Project</text></svg>