<svg xmlns="http://www.w3.org/2000/svg" xmlns:xlink="http://www.w3.org/1999/xlink" xml:space="preserve" version="1.1" style="shape-rendering:geometricPrecision;text-rendering:geometricPrecision;image-rendering:optimizeQuality;" viewBox="0 0 846.66 1058.325" x="0px" y="0px" fill-rule="evenodd" clip-rule="evenodd"><defs><style type="text/css">
   
    .fil0 {fill:black}
   
  </style></defs><g><path class="fil0" d="M355.46 262.08l39.65 0 101.29 0 39.65 0 0.57 0 43.61 -66.03 0 -145.43c0,-42.23 64.21,-42.23 64.21,0l-0.07 154.95c0.01,6.08 -1.72,12.23 -5.32,17.68l-57.3 86.76c-5.52,9.72 -15.96,16.28 -27.94,16.28l-17.76 0 0 189.57 -180.59 0 0 -189.57 -17.76 0c-11.98,0 -22.42,-6.56 -27.94,-16.28l-57.29 -86.76c-3.61,-5.45 -5.33,-11.6 -5.33,-17.68l-0.07 -154.95c0,-42.23 64.21,-42.23 64.21,0l0 145.43 43.61 66.03 0.57 0zm-245.92 23.44c-3.13,12.04 -14.08,20.93 -27.11,20.93 -15.46,0 -28,-12.54 -28,-28.01 0,-15.46 12.54,-28 28,-28 0,0 0,-58.74 0,-67.66 0,-8.92 4.12,-13.06 12.14,-15.24 8.03,-2.17 74.08,-12.7 82.1,-14.55 8.03,-1.84 16.22,2.18 16.22,15.56 0,12.75 0.27,99.21 -0.28,98.87 -0.78,14.76 -13,26.49 -27.96,26.49 -15.47,0 -28.01,-12.54 -28.01,-28.01 0,-15.46 12.54,-28 28.01,-28 0.94,0 1.87,0.04 2.79,0.13l0 -52.02 -57.9 9.7c0,29.94 0,59.9 0,89.81zm599.27 155.17c-3.13,12.04 -14.08,20.93 -27.1,20.93 -15.47,0 -28.01,-12.54 -28.01,-28 0,-15.47 12.54,-28.01 28.01,-28.01 0,0 0,-58.74 0,-67.66 0,-8.91 4.11,-13.06 12.14,-15.24 8.02,-2.17 74.07,-12.7 82.1,-14.54 8.03,-1.84 16.22,2.17 16.22,15.55 0,12.76 0.26,99.21 -0.28,98.87 -0.79,14.76 -13.01,26.49 -27.97,26.49 -15.47,0 -28.01,-12.54 -28.01,-28 0,-15.47 12.54,-28.01 28.01,-28.01 0.95,0 1.88,0.04 2.8,0.14l0 -52.03 -57.91 9.7c0,29.94 0,59.9 0,89.81zm-54.8 146.31c19.27,0 34.89,15.61 34.89,34.88 0,19.26 -15.62,34.88 -34.89,34.88 -19.26,0 -34.88,-15.62 -34.88,-34.88 0,-19.27 15.62,-34.88 34.88,-34.88zm0 147.5c12.26,0 22.19,9.94 22.19,22.19 0,12.26 -9.93,22.19 -22.19,22.19 -12.25,0 -22.19,-9.93 -22.19,-22.19 0,-12.25 9.94,-22.19 22.19,-22.19zm-424.36 -196.36l315.59 0 0 289.6 -315.59 0 0 -289.6zm263.68 25.75l18.72 0 0 238.1 -18.72 0 0 -238.1zm-48.33 0l18.73 0 0 238.1 -18.73 0 0 -238.1zm-48.32 0l18.73 0 0 238.1 -18.73 0 0 -238.1zm-48.32 0l18.73 0 0 238.1 -18.73 0 0 -238.1zm-48.32 0l18.73 0 0 238.1 -18.73 0 0 -238.1zm-48.32 0l18.73 0 0 238.1 -18.73 0 0 -238.1zm402.29 -3.73c34.09,0 61.72,27.63 61.72,61.72 0,34.08 -27.63,61.72 -61.72,61.72 -34.08,0 -61.71,-27.64 -61.71,-61.72 0,-34.09 27.63,-61.72 61.71,-61.72zm0 147.51c27.08,0 49.03,21.95 49.03,49.02 0,27.08 -21.95,49.03 -49.03,49.03 -27.07,0 -49.02,-21.95 -49.02,-49.03 0,-27.07 21.95,-49.02 49.02,-49.02zm-88.63 -169.53l177.27 0 0 289.6 -177.27 0 0 -289.6zm-119.62 -453.86c43.25,0 78.31,35.06 78.31,78.31 0,43.25 -35.06,78.31 -78.31,78.31 -43.25,0 -78.31,-35.06 -78.31,-78.31 0,-43.25 35.06,-78.31 78.31,-78.31z"/></g><text x="0" y="861.66" fill="#000000" font-size="5px" font-weight="bold" font-family="'Helvetica Neue', Helvetica, Arial-Unicode, Arial, Sans-serif">Created by zainul arifin</text><text x="0" y="866.66" fill="#000000" font-size="5px" font-weight="bold" font-family="'Helvetica Neue', Helvetica, Arial-Unicode, Arial, Sans-serif">from the Noun Project</text></svg>