<svg xmlns="http://www.w3.org/2000/svg" xmlns:xlink="http://www.w3.org/1999/xlink" version="1.1" x="0px" y="0px" viewBox="0 0 32 40" enable-background="new 0 0 32 32" xml:space="preserve"><g><path d="M30,7.025v18h-2v-18H30z M24,22.025h2v-12h-2V22.025z M20,20.025h2v-8h-2V20.025z"/><path d="M17.57,6.203c-0.27-0.187-0.614-0.229-0.921-0.115L8.818,9.025H3c-0.552,0-1,0.448-1,1v12c0,0.552,0.448,1,1,1h5.818   l7.831,2.937c0.114,0.042,0.233,0.063,0.351,0.063c0.201,0,0.4-0.061,0.57-0.178c0.27-0.187,0.43-0.494,0.43-0.822v-18   C18,6.697,17.839,6.39,17.57,6.203z M8,21.025H4v-10h4V21.025z M16,23.582l-6-2.25V10.718l6-2.25V23.582z"/></g><text x="0" y="47" fill="#000000" font-size="5px" font-weight="bold" font-family="'Helvetica Neue', Helvetica, Arial-Unicode, Arial, Sans-serif">Created by wahyakup</text><text x="0" y="52" fill="#000000" font-size="5px" font-weight="bold" font-family="'Helvetica Neue', Helvetica, Arial-Unicode, Arial, Sans-serif">from the Noun Project</text></svg>